<?xml version="1.0" standalone="no"?>
<!DOCTYPE svg PUBLIC "-//W3C//DTD SVG 20010904//EN"
 "http://www.w3.org/TR/2001/REC-SVG-20010904/DTD/svg10.dtd">
<svg version="1.0" xmlns="http://www.w3.org/2000/svg"
 width="600.000000pt" height="289.000000pt" viewBox="0 0 600.000000 289.000000"
 preserveAspectRatio="xMidYMid meet">
<metadata>
Created by potrace 1.16, written by Peter Selinger 2001-2019
</metadata>
<g transform="translate(0.000000,289.000000) scale(0.100000,-0.100000)"
fill="#000000" stroke="none">
<path d="M4067 2688 c-30 -40 -67 -112 -67 -131 0 -8 -16 -44 -36 -81 -19 -37
-48 -112 -65 -167 -16 -56 -45 -131 -64 -168 -37 -70 -54 -140 -56 -225 -1
-28 -4 -62 -9 -76 l-7 -25 -12 30 c-7 17 -15 73 -18 125 -3 52 -11 114 -19
137 -7 22 -18 78 -23 123 -6 44 -18 96 -27 115 -15 32 -14 39 7 124 13 49 21
93 17 96 -4 4 -16 4 -27 0 -14 -4 -36 -37 -66 -99 -50 -104 -57 -113 -100
-118 -35 -4 -47 -29 -95 -204 -26 -96 -30 -128 -30 -235 0 -114 -2 -127 -24
-159 -28 -43 -38 -72 -38 -116 l0 -34 -154 0 -153 0 -12 43 c-8 28 -10 101 -7
217 3 96 3 183 1 193 -11 47 -42 -2 -68 -108 -22 -88 -57 -154 -97 -182 -18
-12 -34 -21 -36 -19 -2 3 2 39 8 81 6 42 9 83 6 91 -12 32 -38 12 -67 -52 -33
-76 -37 -75 -91 8 -17 26 -36 47 -42 45 -6 -2 -15 -27 -20 -56 -9 -48 -12 -52
-35 -49 -24 3 -27 10 -46 97 -11 52 -26 96 -32 99 -7 2 -21 -11 -30 -29 -10
-18 -32 -47 -50 -65 -24 -25 -33 -46 -37 -81 -11 -88 -25 -155 -37 -169 -16
-19 -294 -20 -306 -1 -4 7 -20 18 -35 24 -32 14 -118 127 -118 154 0 12 20 32
55 55 31 19 67 53 81 76 14 22 57 70 95 107 38 36 69 74 69 84 0 32 -32 19
-120 -48 -56 -43 -172 -116 -203 -128 -15 -6 -17 3 -19 81 -1 48 -1 119 0 157
3 85 -5 101 -44 88 -36 -12 -54 -45 -54 -102 0 -24 -5 -73 -12 -108 l-12 -65
-128 7 -128 8 -40 -28 c-58 -40 -120 -111 -120 -137 -1 -37 -24 -58 -62 -58
-46 0 -58 27 -58 134 0 96 -12 123 -53 112 -18 -4 -28 -16 -35 -38 -13 -43 -9
-211 5 -263 6 -22 14 -82 17 -132 l6 -93 -60 0 c-57 0 -63 2 -93 36 -18 20
-39 51 -47 68 -10 21 -28 35 -59 47 -24 8 -48 23 -53 32 -5 10 -17 17 -27 17
-10 0 -30 15 -45 34 -14 19 -35 38 -47 41 -20 7 -20 8 8 37 15 17 51 45 79 64
43 28 54 41 72 92 12 32 22 65 22 73 0 8 10 32 22 54 18 32 22 57 22 127 1 57
-3 91 -11 99 -7 7 -13 24 -13 36 0 38 -43 73 -87 73 -34 0 -43 -6 -71 -42 -27
-34 -32 -50 -32 -92 1 -28 7 -62 15 -76 30 -53 13 -140 -54 -269 -4 -8 -24
-20 -44 -27 -20 -7 -50 -23 -67 -36 -25 -18 -33 -20 -39 -9 -6 9 -20 12 -40 9
-30 -4 -31 -3 -31 32 0 40 -13 90 -35 130 -7 14 -16 41 -20 60 -4 19 -13 44
-20 55 -7 12 -14 52 -16 90 l-4 70 37 1 c20 1 50 12 66 24 31 23 34 23 159 4
37 -5 45 -3 66 20 25 27 47 87 47 128 0 21 -12 29 -87 60 -129 53 -119 53
-217 3 -56 -29 -102 -45 -125 -45 -20 0 -46 -6 -57 -13 -12 -6 -40 -22 -63
-35 -35 -19 -41 -27 -41 -56 0 -20 8 -40 20 -51 17 -16 20 -29 18 -89 -3 -63
0 -75 23 -106 22 -30 28 -52 39 -154 6 -66 20 -141 30 -167 25 -63 50 -187 50
-251 1 -29 7 -64 15 -78 9 -17 12 -43 8 -86 -5 -52 -2 -70 21 -119 14 -32 33
-81 41 -109 29 -103 50 -156 63 -156 6 0 12 8 12 18 0 9 12 39 26 65 22 42 24
52 14 82 -6 19 -8 50 -4 69 5 28 0 47 -19 84 -21 41 -24 55 -17 87 5 21 6 86
3 143 l-6 105 35 -26 c20 -16 48 -27 66 -27 24 0 37 -8 58 -35 19 -25 34 -35
54 -35 42 0 89 -28 115 -70 23 -37 55 -57 73 -46 5 3 48 -40 98 -95 49 -56 97
-105 107 -110 10 -6 29 -35 42 -64 28 -63 65 -105 95 -105 29 0 26 30 -15 120
-19 43 -35 82 -35 89 0 6 -10 17 -23 26 -12 8 -44 39 -70 70 l-48 55 55 0 c46
0 56 -3 61 -20 9 -27 33 -25 40 3 16 71 29 168 27 207 -2 72 5 90 34 90 21 0
25 -3 19 -17 -14 -33 -17 -71 -6 -77 6 -4 8 -20 5 -36 -5 -24 -2 -31 25 -44
17 -9 31 -23 31 -30 0 -7 9 -25 20 -39 11 -14 20 -32 20 -40 0 -41 41 -29 69
19 22 37 70 63 133 71 39 6 78 34 78 57 0 23 -174 40 -234 23 -28 -8 -28 -7
-21 25 4 18 8 57 10 86 3 47 8 58 48 101 24 26 47 56 51 67 4 15 22 22 71 32
35 6 83 12 106 12 39 0 41 -1 35 -25 -4 -14 -9 -45 -13 -70 -5 -38 -3 -45 11
-45 10 0 26 5 37 11 17 9 19 7 14 -13 -2 -13 -9 -69 -15 -125 -5 -57 -17 -137
-26 -179 -16 -82 -13 -124 11 -124 24 0 44 42 69 141 19 79 27 96 49 109 26
14 28 14 52 -15 13 -16 33 -52 44 -80 11 -27 48 -104 83 -170 56 -107 66 -120
92 -123 16 -2 32 0 37 5 11 11 -22 160 -55 246 l-25 67 134 0 135 0 15 -36
c15 -36 16 -36 35 -19 11 10 26 41 35 69 8 28 21 62 29 75 l13 24 19 -28 c11
-16 28 -51 40 -79 45 -111 77 -26 48 127 -5 22 -2 27 14 27 17 0 19 -5 15 -42
-7 -61 8 -113 33 -113 16 0 20 9 25 53 4 29 9 56 12 58 3 3 25 -21 49 -53 50
-66 98 -94 175 -101 43 -4 54 -1 59 12 5 13 10 9 23 -16 17 -36 61 -52 61 -24
0 14 21 16 159 16 l158 0 7 -61 c3 -34 6 -97 6 -140 0 -42 3 -84 6 -93 24 -62
74 56 74 175 0 51 6 93 16 117 43 100 59 194 74 417 9 150 24 230 39 220 5 -2
11 -30 13 -62 3 -31 10 -59 16 -61 7 -2 12 -9 12 -16 0 -7 9 -21 20 -31 11
-10 25 -37 31 -59 6 -23 20 -68 30 -101 10 -33 23 -88 28 -123 7 -42 18 -73
35 -92 13 -16 27 -43 31 -59 3 -16 15 -37 26 -47 17 -16 22 -16 29 -4 6 8 10
27 10 42 0 15 5 39 11 55 6 15 19 68 30 116 11 49 31 112 46 140 17 35 27 73
30 117 2 36 6 76 9 89 l5 24 17 -25 c9 -14 25 -36 34 -50 14 -19 16 -31 8 -59
-26 -88 -32 -166 -16 -214 9 -25 16 -67 16 -93 0 -26 11 -78 25 -117 13 -38
25 -86 25 -105 0 -19 9 -53 20 -75 11 -22 20 -44 20 -50 0 -5 14 -26 30 -45
17 -19 30 -40 30 -47 0 -18 29 -16 36 2 4 9 0 37 -7 63 -7 26 -16 79 -19 117
-4 39 -12 84 -18 100 -25 69 -36 172 -22 219 23 81 51 48 66 -76 4 -36 11 -58
19 -58 6 0 33 -11 59 -25 67 -35 114 -33 168 8 74 56 107 138 73 183 -15 19
-20 80 -9 108 10 27 34 19 34 -11 0 -16 7 -36 14 -46 9 -11 11 -28 7 -50 -4
-17 -3 -47 1 -65 5 -18 6 -42 3 -52 -4 -11 -3 -45 1 -76 13 -108 54 -45 71
111 6 56 7 58 16 31 5 -16 25 -50 44 -74 43 -56 73 -115 73 -141 0 -56 57
-140 75 -110 12 19 -16 183 -41 238 -13 29 -24 61 -24 71 0 9 -10 32 -23 51
-13 19 -26 39 -30 46 -5 8 7 20 33 33 l41 21 52 -25 c28 -15 58 -26 67 -26 14
0 15 -26 12 -235 -3 -164 -1 -235 6 -235 18 0 30 31 42 106 6 38 18 101 26
141 8 40 14 98 14 130 0 84 5 88 78 68 58 -16 88 -16 170 1 31 6 32 5 32 -26
0 -39 37 -195 52 -219 8 -13 7 -41 -6 -106 -16 -91 -28 -115 -53 -115 -26 0
-74 -34 -79 -57 -3 -12 -22 -34 -42 -50 -49 -36 -53 -42 -46 -81 6 -31 2 -38
-82 -119 -49 -47 -126 -117 -171 -155 -52 -43 -83 -76 -83 -88 0 -27 18 -25
64 6 21 14 70 41 109 59 40 18 91 48 114 66 51 41 146 158 178 219 19 37 125
136 163 152 4 1 18 18 31 36 13 19 53 53 90 77 36 23 77 55 91 70 14 15 63 54
110 88 100 71 150 116 150 134 0 23 -43 14 -90 -18 -54 -36 -215 -119 -232
-119 -6 0 -22 -10 -35 -22 l-23 -21 0 25 c0 14 -9 50 -19 80 -11 31 -24 88
-30 127 -6 39 -22 94 -34 123 -13 29 -34 82 -46 118 -23 70 -55 120 -68 107
-4 -5 -10 -60 -12 -123 l-3 -114 -37 0 c-20 1 -47 7 -61 15 -14 8 -39 14 -57
15 -17 0 -35 5 -38 10 -3 6 -24 10 -46 10 -21 0 -39 3 -39 6 0 3 12 45 26 92
21 68 25 99 21 146 -4 41 -1 71 9 94 30 73 5 98 -40 40 -38 -52 -66 -137 -86
-267 -11 -77 -33 -113 -63 -109 -19 3 -21 8 -19 46 3 29 -3 52 -17 76 -12 18
-21 45 -21 59 0 22 -7 28 -37 36 -85 24 -126 10 -161 -54 l-11 -20 -1 20 c0
26 -38 88 -49 81 -5 -3 -12 -32 -15 -63 -12 -101 -18 -123 -32 -123 -8 0 -19
12 -25 28 -15 39 -57 80 -96 93 -28 9 -38 8 -68 -11 -48 -30 -112 -105 -143
-167 -38 -77 -45 -71 -57 47 -4 36 -13 99 -21 140 -35 183 -56 358 -50 417 3
34 17 89 31 122 42 101 25 150 -28 79z"/>
</g>
</svg>
